<svg t="1648361475653" class="icon" viewBox="0 0 1024 1024" version="1.1" xmlns="http://www.w3.org/2000/svg" p-id="5113" width="200" height="200"><path d="M597.333333 341.333333H170.666667c-47.061333 0-85.333333 38.272-85.333334 85.333334v426.666666c0 47.061333 38.272 85.333333 85.333334 85.333334h426.666666c47.061333 0 85.333333-38.272 85.333334-85.333334V426.666667c0-47.061333-38.272-85.333333-85.333334-85.333334z" p-id="5114" fill="#939393"></path><path d="M853.333333 85.333333H426.666667a85.333333 85.333333 0 0 0-85.333334 85.333334v85.333333h341.333334a85.333333 85.333333 0 0 1 85.333333 85.333333v341.333334h85.333333a85.333333 85.333333 0 0 0 85.333334-85.333334V170.666667a85.333333 85.333333 0 0 0-85.333334-85.333334z" p-id="5115" fill="#939393"></path></svg>